<svg xmlns="http://www.w3.org/2000/svg" viewBox="0 0 500 400" fill="none">
  <defs>
    <linearGradient id="bg-seo" x1="0" y1="0" x2="1" y2="1">
      <stop offset="0%" stop-color="#4185F7" stop-opacity="0.08"/>
      <stop offset="100%" stop-color="#ED4235" stop-opacity="0.04"/>
    </linearGradient>
  </defs>
  <rect width="500" height="400" rx="24" fill="url(#bg-seo)"/>
  <circle cx="420" cy="60" r="70" fill="#F9BE05" opacity="0.05"/>
  <circle cx="80" cy="350" r="60" fill="#4185F7" opacity="0.04"/>
  <!-- Dashboard card -->
  <rect x="60" y="50" width="380" height="300" rx="16" fill="#fff" stroke="#e8e8ef" stroke-width="2"/>
  <!-- Header bar -->
  <rect x="60" y="50" width="380" height="48" rx="16" fill="#4185F7" opacity="0.9"/>
  <rect x="60" y="82" width="380" height="16" fill="#4185F7" opacity="0.9"/>
  <circle cx="85" cy="74" r="6" fill="#fff" opacity="0.3"/>
  <rect x="100" y="70" width="60" height="8" rx="4" fill="#fff" opacity="0.5"/>
  <circle cx="410" cy="74" r="6" fill="#fff" opacity="0.3"/>
  <!-- SEO Bar chart -->
  <rect x="90" y="130" width="30" height="60" rx="4" fill="#ED4235" opacity="0.7"/>
  <rect x="130" y="110" width="30" height="80" rx="4" fill="#4185F7" opacity="0.6"/>
  <rect x="170" y="100" width="30" height="90" rx="4" fill="#F9BE05" opacity="0.6"/>
  <rect x="210" y="120" width="30" height="70" rx="4" fill="#ED4235" opacity="0.5"/>
  <rect x="250" y="90" width="30" height="100" rx="4" fill="#4185F7" opacity="0.7"/>
  <rect x="290" y="105" width="30" height="85" rx="4" fill="#F9BE05" opacity="0.5"/>
  <rect x="330" y="115" width="30" height="75" rx="4" fill="#ED4235" opacity="0.6"/>
  <rect x="370" y="95" width="30" height="95" rx="4" fill="#4185F7" opacity="0.7"/>
  <!-- Trend line -->
  <path d="M90 200 L130 190 L170 170 L210 180 L250 150 L290 160 L330 165 L370 145" stroke="#ED4235" stroke-width="2.5" stroke-linecap="round" fill="none" opacity="0.8"/>
  <!-- Growth arrow -->
  <path d="M355 145 L370 145 L370 160" stroke="#ED4235" stroke-width="2" stroke-linecap="round" fill="none" opacity="0.8"/>
  <!-- Bottom stats -->
  <rect x="90" y="240" width="80" height="40" rx="8" fill="#f0f4ff"/>
  <text x="100" y="260" fill="#4185F7" font-size="10" font-weight="700" font-family="Arial">+150%</text>
  <text x="100" y="272" fill="#999" font-size="8" font-family="Arial">Traffic</text>
  <rect x="190" y="240" width="80" height="40" rx="8" fill="#fff5f5"/>
  <text x="200" y="260" fill="#ED4235" font-size="10" font-weight="700" font-family="Arial">Top 3</text>
  <text x="200" y="272" fill="#999" font-size="8" font-family="Arial">Rankings</text>
  <rect x="290" y="240" width="80" height="40" rx="8" fill="#fffdf0"/>
  <text x="300" y="260" fill="#F9BE05" font-size="10" font-weight="700" font-family="Arial">+200%</text>
  <text x="300" y="272" fill="#999" font-size="8" font-family="Arial">Leads</text>
  <!-- Search bar at bottom -->
  <rect x="90" y="310" width="320" height="24" rx="12" fill="#f5f5f5" stroke="#eee" stroke-width="1"/>
  <circle cx="105" cy="322" r="5" fill="#ccc"/>
  <text x="118" y="326" fill="#bbb" font-size="9" font-family="Arial">nubevest.com.au - affordable SEO services</text>
  <!-- Google-like result -->
  <rect x="90" y="310" width="160" height="4" rx="2" fill="#4185F7" opacity="0.4"/>
</svg>
